<?xml version="1.0" encoding="UTF-8"?>
<svg viewBox="0 0 140 140" version="1.1" xmlns="http://www.w3.org/2000/svg" xmlns:xlink="http://www.w3.org/1999/xlink">
  <style>
    .B { stroke: #069 }
    .R { stroke: #c50 }
    .G { stroke: #777 }
    .I { stroke: #876 }
  </style>
  <g stroke="none" stroke-width="1" fill="none" fill-rule="evenodd">
    <g transform="translate(2, 5)" stroke-linecap="round" stroke-linejoin="round" stroke-width="10">
      <g transform="translate(11, 12)">
        <line class="B" x1="113" y1="107" x2="113" y2="72"/>
        <line class="R" x1="1" y1="108" x2="1" y2="73"/>
        <line class="B" x1="1" y1="36" x2="1" y2="0"/>
        <line class="R" x1="113" y1="35" x2="113" y2="0"/>
      </g>
      <g class="I" stroke-width="3">
        <circle cx="124" cy="120" r="12"/>
        <circle cx="124" cy="120" r="7"/>
        <circle cx="12" cy="120" r="12"/>
        <circle cx="12" cy="120" r="7"/>
        <circle cx="124" cy="84" r="12"/>
        <circle cx="124" cy="84" r="7"/>
        <circle cx="12" cy="84" r="12"/>
        <circle cx="12" cy="84" r="7"/>
        <circle cx="124" cy="48" r="12"/>
        <circle cx="124" cy="48" r="7"/>
        <circle cx="12" cy="48" r="12"/>
        <circle cx="12" cy="48" r="7"/>
        <circle cx="124" cy="12" r="12"/>
        <circle cx="124" cy="12" r="7"/>
        <circle cx="12" cy="12" r="12"/>
        <circle cx="12" cy="12" r="7"/>
      </g>
      <g transform="translate(12, 3)">
        <line class="G" x1="0" y1="117" x2="112" y2="117"/>
        <line class="R" x1="0" y1="81" x2="112" y2="45"/>
        <line class="B" x1="112" y1="81" x2="0" y2="45"/>
        <line class="R" x1="65" y1="0" x2="112" y2="9"/>
        <line class="B" x1="0" y1="9" x2="47" y2="0"/>
      </g>
    </g>
  </g>
</svg>
